<svg width="32" height="33" viewBox="0 0 32 33" fill="none" xmlns="http://www.w3.org/2000/svg">
<g id="32px/mail">
<path id="Vector" d="M5.33334 27.1666C4.60001 27.1666 3.97201 26.9053 3.44934 26.3826C2.92667 25.8599 2.66579 25.2324 2.66667 24.4999V8.49992C2.66667 7.76659 2.92801 7.13859 3.45067 6.61592C3.97334 6.09325 4.6009 5.83237 5.33334 5.83325H26.6667C27.4 5.83325 28.028 6.09459 28.5507 6.61725C29.0733 7.13992 29.3342 7.76748 29.3333 8.49992V24.4999C29.3333 25.2333 29.072 25.8613 28.5493 26.3839C28.0267 26.9066 27.3991 27.1675 26.6667 27.1666H5.33334ZM16 17.8333L5.33334 11.1666V24.4999H26.6667V11.1666L16 17.8333ZM16 15.1666L26.6667 8.49992H5.33334L16 15.1666ZM5.33334 11.1666V8.49992V24.4999V11.1666Z" fill="#F8F5F4"/>
</g>
</svg>
