<svg width="22" height="20" viewBox="0 0 22 20" fill="none" xmlns="http://www.w3.org/2000/svg">
<path d="M20.6095 9.7875C19.8529 7.88603 18.5396 6.24164 16.8318 5.05755C15.124 3.87347 13.0965 3.20161 11 3.125C8.90347 3.20161 6.87601 3.87347 5.16819 5.05755C3.46036 6.24164 2.14703 7.88603 1.39052 9.7875C1.33943 9.92482 1.33943 10.0752 1.39052 10.2125C2.14703 12.114 3.46036 13.7584 5.16819 14.9424C6.87601 16.1265 8.90347 16.7984 11 16.875C13.0965 16.7984 15.124 16.1265 16.8318 14.9424C18.5396 13.7584 19.8529 12.114 20.6095 10.2125C20.6605 10.0752 20.6605 9.92482 20.6095 9.7875ZM11 15.625C7.59101 15.625 3.98907 13.1687 2.68336 10C3.98907 6.83125 7.59101 4.375 11 4.375C14.409 4.375 18.0109 6.83125 19.3166 10C18.0109 13.1687 14.409 15.625 11 15.625Z" fill="#4F8FF0"/>
<path d="M11 6.25C10.2367 6.25 9.49058 6.46993 8.85593 6.88199C8.22129 7.29404 7.72664 7.87971 7.43455 8.56494C7.14245 9.25016 7.06602 10.0042 7.21493 10.7316C7.36384 11.459 7.7314 12.1272 8.27112 12.6517C8.81084 13.1761 9.49849 13.5333 10.2471 13.6779C10.9957 13.8226 11.7717 13.7484 12.4769 13.4645C13.182 13.1807 13.7848 12.7001 14.2088 12.0834C14.6329 11.4667 14.8592 10.7417 14.8592 10C14.8592 9.00544 14.4526 8.05161 13.7289 7.34835C13.0051 6.64509 12.0235 6.25 11 6.25ZM11 12.5C10.4911 12.5 9.99372 12.3534 9.57062 12.0787C9.14753 11.804 8.81776 11.4135 8.62303 10.9567C8.4283 10.4999 8.37735 9.99723 8.47662 9.51227C8.5759 9.02732 8.82093 8.58186 9.18075 8.23223C9.54056 7.8826 9.99899 7.6445 10.4981 7.54804C10.9971 7.45157 11.5145 7.50108 11.9846 7.6903C12.4547 7.87952 12.8565 8.19995 13.1392 8.61107C13.4219 9.0222 13.5728 9.50555 13.5728 10C13.5728 10.663 13.3018 11.2989 12.8193 11.7678C12.3368 12.2366 11.6824 12.5 11 12.5Z" fill="#4F8FF0"/>
</svg>
