<svg width="20" height="20" viewBox="0 0 20 20" fill="none" xmlns="http://www.w3.org/2000/svg">
<path d="M3.33333 16.6666C2.875 16.6666 2.4825 16.5033 2.15583 16.1766C1.82917 15.8499 1.66611 15.4577 1.66667 14.9999V4.99992C1.66667 4.54159 1.83 4.14909 2.15667 3.82242C2.48333 3.49575 2.87555 3.3327 3.33333 3.33325H16.6667C17.125 3.33325 17.5175 3.49659 17.8442 3.82325C18.1708 4.14992 18.3339 4.54214 18.3333 4.99992V14.9999C18.3333 15.4583 18.17 15.8508 17.8433 16.1774C17.5167 16.5041 17.1244 16.6671 16.6667 16.6666H3.33333ZM10 10.8333L3.33333 6.66659V14.9999H16.6667V6.66659L10 10.8333ZM10 9.16659L16.6667 4.99992H3.33333L10 9.16659ZM3.33333 6.66659V4.99992V14.9999V6.66659Z" fill="#4F8FF0"/>
</svg>
